HIERARCHY
ROOT Hips
{
	OFFSET 0.000000 0.000000 0.000000
	CHANNELS 6 Xposition Yposition Zposition Zrotation Yrotation Xrotation 
	JOINT LeftUpLeg_virtual
	{
		OFFSET 0.000000 0.000000 0.000000
		CHANNELS 3 Zrotation Yrotation Xrotation
		JOINT LeftUpLeg
		{
			OFFSET 8.479694 -4.795517 -0.379053
			CHANNELS 3 Zrotation Yrotation Xrotation
			JOINT LeftLeg
			{
				OFFSET 0.485052 -32.551468 0.112863
				CHANNELS 3 Zrotation Yrotation Xrotation
				JOINT LeftFoot
				{
					OFFSET 0.438033 -32.635670 -3.012641
					CHANNELS 3 Zrotation Yrotation Xrotation
					JOINT LeftToeBase
					{
						OFFSET 0.970169 -13.225353 11.864223
						CHANNELS 3 Zrotation Yrotation Xrotation
						End Site
						{
							OFFSET 0.000000 0.000000 0.000000
						}
					}
				}
			}
		}
	}
	JOINT RightUpLeg_virtual
	{
		OFFSET 0.000000 0.000000 0.000000
		CHANNELS 3 Zrotation Yrotation Xrotation
		JOINT RightUpLeg
		{
			OFFSET -8.479694 -4.795517 -0.379053
			CHANNELS 3 Zrotation Yrotation Xrotation
			JOINT RightLeg
			{
				OFFSET -0.484100 -32.551483 0.112903
				CHANNELS 3 Zrotation Yrotation Xrotation
				JOINT RightFoot
				{
					OFFSET -0.438985 -32.635651 -3.012681
					CHANNELS 3 Zrotation Yrotation Xrotation
					JOINT RightToeBase
					{
						OFFSET -0.970169 -13.225354 11.864223
						CHANNELS 3 Zrotation Yrotation Xrotation
						End Site
						{
							OFFSET 0.000000 0.000000 0.000000
						}
					}
				}
			}
		}
	}
	JOINT Spine_virtual
	{
		OFFSET 0.000000 0.000000 0.000000
		CHANNELS 3 Zrotation Yrotation Xrotation
		JOINT Spine
		{
			OFFSET 0.000000 7.722015 1.166203
			CHANNELS 3 Zrotation Yrotation Xrotation
			JOINT Spine1
			{
				OFFSET 0.000000 12.024086 0.248766
				CHANNELS 3 Zrotation Yrotation Xrotation
				JOINT Spine2
				{
					OFFSET -0.000000 11.503036 -0.491240
					CHANNELS 3 Zrotation Yrotation Xrotation
					JOINT Neck_virtual
					{
						OFFSET 0.000000 0.000000 0.000000
						CHANNELS 3 Zrotation Yrotation Xrotation
						JOINT Neck
						{
							OFFSET 0.000000 18.430687 -3.123054
							CHANNELS 3 Zrotation Yrotation Xrotation
							JOINT Head
							{
								OFFSET -0.000000 9.051071 1.034021
								CHANNELS 3 Zrotation Yrotation Xrotation
								End Site
								{
									OFFSET 0.000000 0.000000 0.000000
								}
							}
						}
					}
					JOINT LeftShoulder_virtual
					{
						OFFSET 0.000000 0.000000 0.000000
						CHANNELS 3 Zrotation Yrotation Xrotation
						JOINT LeftShoulder
						{
							OFFSET 6.197824 13.665230 -4.064723
							CHANNELS 3 Zrotation Yrotation Xrotation
							JOINT LeftArm
							{
								OFFSET 7.778132 -0.187073 -1.709282
								CHANNELS 3 Zrotation Yrotation Xrotation
								JOINT LeftForeArm
								{
									OFFSET 21.954697 0.000000 -2.041093
									CHANNELS 3 Zrotation Yrotation Xrotation
									JOINT LeftHand
									{
										OFFSET 22.992908 0.000000 -0.870901
										CHANNELS 3 Zrotation Yrotation Xrotation
										End Site
										{
											OFFSET 0.000000 0.000000 0.000000
										}
									}
								}
							}
						}
					}
					JOINT RightShoulder_virtual
					{
						OFFSET 0.000000 0.000000 0.000000
						CHANNELS 3 Zrotation Yrotation Xrotation
						JOINT RightShoulder
						{
							OFFSET -6.197824 13.665230 -4.064723
							CHANNELS 3 Zrotation Yrotation Xrotation
							JOINT RightArm
							{
								OFFSET -7.778132 -0.187073 -1.709282
								CHANNELS 3 Zrotation Yrotation Xrotation
								JOINT RightForeArm
								{
									OFFSET -21.954697 0.000000 -2.041093
									CHANNELS 3 Zrotation Yrotation Xrotation
									JOINT RightHand
									{
										OFFSET -22.992908 0.000000 -0.870901
										CHANNELS 3 Zrotation Yrotation Xrotation
										End Site
										{
											OFFSET 0.000000 0.000000 0.000000
										}
									}
								}
							}
						}
					}
				}
			}
		}
	}
}
MOTION
Frames: 4
Frame Time: 0.033333
-7.944611 65.188400 6.411241 179.833827 2.262278 -179.944243 1.793895 -5.619258 11.205876 2.538944 1.976945 -74.734502 7.434206 2.665514 79.532772 -5.688215 -10.729950 -14.147544 0.000000 0.000000 0.000000 4.448477 -4.251225 11.686798 -5.601458 -12.040593 -79.769820 0.598723 0.863725 83.212263 3.426265 10.660879 -10.000838 0.000000 0.000000 0.000000 4.666062 -1.118423 15.511395 1.041959 -1.015942 14.200269 -1.303446 -0.186272 12.466346 0.007831 -0.005705 -0.029304 -0.789717 0.114699 13.182409 3.017524 0.125644 -7.205149 0.000000 0.000000 0.000000 0.420346 0.662028 9.094593 -5.383104 -11.354033 2.963637 -38.527465 -29.160069 -22.628613 1.681620 -42.535843 7.143712 0.000000 0.000000 0.000000 -3.434443 2.235217 8.479192 21.964577 9.171219 -1.328321 45.915885 22.064798 -7.948836 -5.485759 49.299117 -10.363394 0.000000 0.000000 0.000000 
-8.037854 63.923569 7.164608 179.864890 1.193574 -179.941962 1.635900 -6.320289 9.094154 2.650102 2.800214 -75.276123 6.884959 2.740572 82.202781 -5.237285 -10.793859 -14.084951 0.000000 0.000000 0.000000 3.880109 -4.716367 9.575284 -5.355114 -12.026676 -80.155678 0.500005 0.893259 85.621933 3.366944 10.590869 -9.516982 0.000000 0.000000 0.000000 4.249239 -1.513990 12.958467 0.814115 -1.009907 13.023075 -1.260695 -0.099322 12.610050 0.005437 -0.022935 0.006674 -0.779709 0.222851 13.536007 3.025423 0.254159 -6.509041 0.000000 0.000000 0.000000 0.488117 0.732028 9.314190 -6.034848 -11.097805 3.331703 -40.307012 -27.981031 -23.120254 1.326324 -45.512518 7.082088 0.000000 0.000000 0.000000 -3.352538 2.303564 8.780187 22.380233 9.395099 -0.940217 47.654069 21.015626 -6.145164 -5.253247 47.180488 -9.608336 0.000000 0.000000 0.000000 
-8.180007 62.907364 7.811676 -179.998106 0.504392 -179.937782 1.606299 -6.770918 7.206413 3.009396 3.601057 -75.511395 7.568999 3.280153 84.218493 -5.614147 -11.987965 -13.713159 0.000000 0.000000 0.000000 3.534138 -4.848264 7.630901 -5.313836 -11.810694 -80.057494 0.426376 1.143502 87.524004 3.227074 10.655188 -9.196337 0.000000 0.000000 0.000000 3.756867 -1.693818 10.403055 0.666940 -0.961014 11.656871 -1.201367 0.052882 12.713180 -0.001506 0.007297 0.019504 -0.965354 0.091284 13.825272 2.774048 0.282935 -5.858849 0.000000 0.000000 0.000000 0.402649 0.849794 9.517130 -6.509594 -10.581477 3.606504 -42.620456 -26.678285 -23.353279 0.974091 -49.085701 7.012218 0.000000 0.000000 0.000000 -3.407212 2.295502 9.121705 22.922088 9.574258 -0.523112 49.105946 19.737679 -4.000868 -5.038470 45.182367 -8.674894 0.000000 0.000000 0.000000 
-8.358814 62.199825 8.302299 -179.800796 0.056713 -179.890107 1.433002 -7.056325 5.450952 3.137395 4.431367 -75.401771 7.742827 3.557490 85.792463 -5.252420 -12.245745 -13.346080 0.000000 0.000000 0.000000 3.496398 -4.826836 5.746236 -5.438223 -11.527290 -79.684115 0.412235 1.648641 88.768758 3.307714 10.468900 -8.990114 0.000000 0.000000 0.000000 3.520188 -1.773389 7.866291 0.369857 -0.986505 10.122222 -1.282248 0.185010 12.744820 -0.013662 0.040955 0.022115 -1.051259 0.231823 14.125577 2.329855 0.607889 -5.325790 0.000000 0.000000 0.000000 0.406842 0.994029 9.749272 -6.900731 -9.861004 4.006911 -45.291073 -25.381584 -23.056108 0.711113 -53.463920 6.898739 0.000000 0.000000 0.000000 -3.385115 2.498563 9.458717 23.536040 9.472320 -0.195196 50.237718 18.105580 -1.833640 -5.009248 43.502277 -8.192366 0.000000 0.000000 0.000000 
